<svg xmlns="http://www.w3.org/2000/svg" width="257" height="120"><path fill="#C8D6DD" fill-rule="evenodd" d="M68.093.538h11.579c.613 0 1.123.51 1.123 1.122v116.466c0 .614-.51 1.125-1.123 1.125H68.093a1.134 1.134 0 0 1-1.123-1.125V1.647A1.136 1.136 0 0 1 68.093.538Zm79.836 95.826v2.948c0 1.326-.204 3.049-.714 5.285-.409 2.131-1.519 4.365-3.46 6.511-1.825 2.13-4.57 4.07-8.323 5.692-3.753 1.519-8.834 2.338-15.332 2.338-6.497 0-11.578-.819-15.344-2.338-3.753-1.517-6.395-3.462-8.323-5.692-1.825-2.133-3.051-4.366-3.447-6.601-.408-2.235-.714-3.869-.714-5.186V32.947c0-.615.51-1.123 1.123-1.123h11.578c.613 0 1.124.508 1.124 1.123v62.088c0 2.031.306 3.562.613 4.671.306 1.226.918 2.337 1.723 3.357.919 1.126 2.234 1.927 4.059 2.643 1.724.716 4.162 1.123 7.213 1.123 3.153 0 5.693-.407 7.519-1.123 1.825-.716 3.255-1.517 4.161-2.541 1.022-1.019 1.622-2.031 1.928-3.252.306-1.226.715-2.134.715-4.98V32.947c0-.615.51-1.123 1.123-1.123h11.579c.612 0 1.123.508 1.123 1.123l.076 63.417Zm39.612-64.423h7.826c.714 0 1.225.711 1.02 1.312l-2.642 10.16c-.102.513-.612.818-1.008.818h-5.489c-2.949 0-5.286.407-7.111 1.213-1.723.816-3.255 1.621-4.161 2.743-.92 1.122-1.52 2.133-1.826 3.256a12.925 12.925 0 0 0-.408 3.254v63.416c0 .613-.511 1.125-1.124 1.125h-11.68a1.135 1.135 0 0 1-1.124-1.125V51.852c0-1.225.205-2.948.715-5.182.409-2.236 1.519-4.364 3.46-6.598 1.825-2.134 4.57-4.064 8.323-5.695 3.549-1.635 8.731-2.436 15.229-2.436Zm-159.761 0c9.446 0 16.455 1.823 20.923 5.588 4.365 3.766 6.599 8.438 6.599 14.03v47.762c0 1.93-.408 4.064-1.123 6.41-.715 2.336-2.03 4.47-4.059 6.409-2.03 1.929-4.877 3.559-8.426 4.876-3.561 1.316-8.233 1.93-13.914 1.93-5.796 0-10.353-.719-13.915-1.93-3.561-1.224-6.395-2.947-8.425-4.876-2.03-1.925-3.459-4.058-4.059-6.409-.715-2.336-1.124-4.464-1.124-6.41v-7.615c0-4.061 1.124-7.826 3.153-11.186 2.132-3.357 5.081-5.793 8.936-7.109 1.928-.716 4.06-1.327 6.6-2.233 2.438-.92 4.877-1.621 7.213-2.541 2.336-.817 4.263-1.517 6.089-2.13 1.723-.718 2.846-1.024 3.255-1.227a14.24 14.24 0 0 0 1.621-.919c.715-.411 1.315-1.021 2.03-1.619a9.418 9.418 0 0 0 1.621-2.543c.511-1.024.715-2.13.715-3.46V53.69c0-1.125-.204-2.131-.715-3.355-.408-1.23-1.213-2.132-2.234-3.154-1.021-1.021-2.54-1.727-4.263-2.338-1.724-.612-3.958-.917-6.702-.917-5.388 0-8.936 1.123-10.966 3.357-1.621 1.926-2.642 4.26-2.847 7.008 0 .612-.511 1.02-1.123 1.02H1.266a1.134 1.134 0 0 1-1.124-1.122v-2.848c0-2.744.511-5.286 1.519-7.623 1.009-2.331 2.643-4.466 4.979-6.302 2.234-1.725 5.081-3.257 8.63-4.163 3.459-.714 7.633-1.312 12.51-1.312Zm13.914 42.871c-.204 1.127-.817 1.829-1.621 2.444-.919.609-1.621.917-2.438 1.209-1.621.614-3.447 1.228-5.285 1.826-1.826.716-3.651 1.317-5.285 1.825-1.928.715-3.855 1.315-5.489 1.93a20.12 20.12 0 0 0-3.753 2.233c-1.021.921-1.826 1.927-2.643 3.357-.817 1.418-1.225 3.049-1.225 5.08 0 4.071 1.021 7.109 2.949 9.151 1.927 1.928 5.591 3.054 10.863 3.054 5.387 0 9.038-1.126 11.068-3.154 1.928-2.135 2.949-5.08 2.949-8.951l-.09-20.004Zm187.501-42.871c9.447 0 16.455 1.823 20.923 5.588 4.366 3.766 6.6 8.438 6.6 14.03v47.762c0 1.93-.409 4.064-1.124 6.41-.715 2.336-2.029 4.47-4.059 6.409-2.03 1.929-4.877 3.559-8.425 4.876-3.549 1.316-8.234 1.93-13.915 1.93-5.783 0-10.365-.719-13.914-1.93-3.562-1.224-6.396-2.947-8.438-4.876-2.03-1.925-3.447-4.058-4.06-6.409-.715-2.336-1.123-4.464-1.123-6.41v-7.615c0-4.061 1.123-7.826 3.153-11.186 2.132-3.357 5.081-5.793 8.936-7.109 1.927-.716 4.059-1.327 6.6-2.233 2.438-.92 4.876-1.621 7.212-2.541 2.336-.817 4.264-1.517 6.089-2.13 1.724-.718 2.847-1.024 3.256-1.227.408-.201 1.021-.51 1.621-.919.715-.411 1.327-1.021 2.03-1.619a9.77 9.77 0 0 0 1.621-2.543c.51-1.024.715-2.13.715-3.46V53.69c0-1.125-.205-2.131-.715-3.355-.409-1.23-1.213-2.132-2.234-3.154-2.272-1.021-2.54-1.727-4.264-2.338-1.723-.612-3.957-.917-6.702-.917-5.387 0-8.936 1.123-10.966 3.357-1.621 1.926-2.642 4.26-2.846 7.008 0 .612-.511 1.02-1.124 1.02h-11.68a1.133 1.133 0 0 1-1.123-1.122v-2.848c0-2.744.51-5.286 1.519-7.623 1.008-2.331 2.642-4.466 4.978-6.302 2.234-1.725 5.081-3.257 8.63-4.163 3.791-.714 7.953-1.312 12.829-1.312Zm13.813 42.871c-.205 1.127-.818 1.829-1.622 2.444-.919.609-1.621.917-2.438 1.209-1.621.614-3.459 1.228-5.285 1.826-1.825.716-3.651 1.317-5.285 1.825-1.927.715-3.855 1.315-5.489 1.93a20.12 20.12 0 0 0-3.753 2.233c-1.021.921-1.826 1.927-2.643 3.357-.817 1.315-1.212 3.049-1.212 5.08 0 4.071 1.008 7.109 2.948 9.151 1.928 1.928 5.592 3.054 10.864 3.054 5.387 0 9.038-1.126 11.068-3.154 1.927-2.135 2.949-5.08 2.949-8.951l-.102-20.004Z" opacity=".89"/></svg>