<svg xmlns="http://www.w3.org/2000/svg" width="53" height="21"><path fill="#ACC1CC" fill-rule="evenodd" d="m45.358 20.07-1.443-3.344H37.24l-1.444 3.344h-3.54l6.765-15.008h3.203l6.765 15.008h-3.631ZM40.577 9.001l-2.097 4.832h4.195l-2.098-4.832ZM25.964 20.07h-7.51V5.168h7.329c3.225 0 5.21 1.514 5.21 3.853v.044c0 1.681-.947 2.617-2.075 3.215 1.827.657 2.954 1.659 2.954 3.659v.043c0 2.726-2.345 4.088-5.908 4.088Zm1.578-10.494c0-.981-.812-1.532-2.278-1.532h-3.427v3.151h3.202c1.534 0 2.503-.472 2.503-1.577v-.042Zm.88 5.961c0-1-.79-1.62-2.571-1.62h-4.014v3.279h4.127c1.533 0 2.458-.512 2.458-1.619v-.04Zm-16.08-5.195-4.443 6.364h-.09l-4.398-6.3v9.664H.006V5.168h3.743l4.15 6.301 4.15-6.301h3.743V20.07h-3.45v-9.728Z"/><text font-family="Myriad Pro" font-size="19" transform="matrix(.68395 0 0 .68395 46.264 8.288)">
    <tspan fill="#ED145B" font-family="Gotham HTF">+</tspan>
  </text></svg>